<?xml version="1.0" encoding="UTF-8"?>
<svg xmlns="http://www.w3.org/2000/svg" width="3960" height="5603" viewBox="0 0 3960 5603" id="mega-first">
<rect width="3960" height="5603" fill="#c0c5ce"/>
<rect x="48" y="48" width="3864" height="5507" fill="#d4d8df" stroke="#2d3748" stroke-width="16"/>
<rect x="1467.04" y="2217.73" width="1025.92" height="1167.54" fill="#e8eaef" stroke="#2d3748" stroke-width="8" stroke-dasharray="24 14"/>
<line x1="148" y1="148" x2="3812" y2="148" stroke="#3d4854" stroke-width="3" stroke-linecap="square"/>
<line x1="148" y1="479.6875" x2="3812" y2="479.6875" stroke="#3d4854" stroke-width="3" stroke-linecap="square"/>
<line x1="148" y1="811.375" x2="3812" y2="811.375" stroke="#3d4854" stroke-width="3" stroke-linecap="square"/>
<line x1="148" y1="1143.0625" x2="3812" y2="1143.0625" stroke="#3d4854" stroke-width="3" stroke-linecap="square"/>
<line x1="148" y1="1474.75" x2="3812" y2="1474.75" stroke="#3d4854" stroke-width="3" stroke-linecap="square"/>
<line x1="148" y1="1806.4375" x2="3812" y2="1806.4375" stroke="#3d4854" stroke-width="3" stroke-linecap="square"/>
<line x1="148" y1="3796.5625" x2="3812" y2="3796.5625" stroke="#3d4854" stroke-width="3" stroke-linecap="square"/>
<line x1="148" y1="4128.25" x2="3812" y2="4128.25" stroke="#3d4854" stroke-width="3" stroke-linecap="square"/>
<line x1="148" y1="4459.9375" x2="3812" y2="4459.9375" stroke="#3d4854" stroke-width="3" stroke-linecap="square"/>
<line x1="148" y1="4791.625" x2="3812" y2="4791.625" stroke="#3d4854" stroke-width="3" stroke-linecap="square"/>
<line x1="148" y1="5123.3125" x2="3812" y2="5123.3125" stroke="#3d4854" stroke-width="3" stroke-linecap="square"/>
<line x1="148" y1="5455" x2="3812" y2="5455" stroke="#3d4854" stroke-width="3" stroke-linecap="square"/>
<line x1="148" y1="148" x2="148" y2="5455" stroke="#3d4854" stroke-width="3" stroke-linecap="square"/>
<line x1="481.09090909090907" y1="148" x2="481.09090909090907" y2="5455" stroke="#3d4854" stroke-width="3" stroke-linecap="square"/>
<line x1="814.1818181818181" y1="148" x2="814.1818181818181" y2="5455" stroke="#3d4854" stroke-width="3" stroke-linecap="square"/>
<line x1="1147.2727272727273" y1="148" x2="1147.2727272727273" y2="5455" stroke="#3d4854" stroke-width="3" stroke-linecap="square"/>
<line x1="2812.7272727272725" y1="148" x2="2812.7272727272725" y2="5455" stroke="#3d4854" stroke-width="3" stroke-linecap="square"/>
<line x1="3145.8181818181815" y1="148" x2="3145.8181818181815" y2="5455" stroke="#3d4854" stroke-width="3" stroke-linecap="square"/>
<line x1="3478.9090909090905" y1="148" x2="3478.9090909090905" y2="5455" stroke="#3d4854" stroke-width="3" stroke-linecap="square"/>
<line x1="3811.9999999999995" y1="148" x2="3811.9999999999995" y2="5455" stroke="#3d4854" stroke-width="3" stroke-linecap="square"/>
<line x1="314.5454545454545" y1="811.375" x2="1427.04" y2="811.375" stroke="#3d4854" stroke-width="5" stroke-linecap="square"/>
<line x1="2532.96" y1="811.375" x2="3645.4545454545455" y2="811.375" stroke="#3d4854" stroke-width="5" stroke-linecap="square"/>
<line x1="314.5454545454545" y1="1806.4375" x2="1427.04" y2="1806.4375" stroke="#3d4854" stroke-width="5" stroke-linecap="square"/>
<line x1="2532.96" y1="1806.4375" x2="3645.4545454545455" y2="1806.4375" stroke="#3d4854" stroke-width="5" stroke-linecap="square"/>
<line x1="314.5454545454545" y1="2801.5" x2="1427.04" y2="2801.5" stroke="#3d4854" stroke-width="5" stroke-linecap="square"/>
<line x1="2532.96" y1="2801.5" x2="3645.4545454545455" y2="2801.5" stroke="#3d4854" stroke-width="5" stroke-linecap="square"/>
<line x1="314.5454545454545" y1="3796.5625" x2="1427.04" y2="3796.5625" stroke="#3d4854" stroke-width="5" stroke-linecap="square"/>
<line x1="2532.96" y1="3796.5625" x2="3645.4545454545455" y2="3796.5625" stroke="#3d4854" stroke-width="5" stroke-linecap="square"/>
<line x1="148" y1="2801.5" x2="3812" y2="2801.5" stroke="#3d4854" stroke-width="7" stroke-linecap="square"/>
<rect x="481.09090909090907" y="479.6875" width="732.8" height="995.0625" fill="#b0b8c4" stroke="#2d3748" stroke-width="5"/>
<rect x="2646.181818181818" y="2801.5" width="832.7272727272726" height="1990.125" fill="#b0b8c4" stroke="#2d3748" stroke-width="5"/>
</svg>