<?xml version="1.0" encoding="UTF-8"?>
<svg xmlns="http://www.w3.org/2000/svg" width="3960" height="5603" viewBox="0 0 3960 5603" id="mega-ground">
<rect width="3960" height="5603" fill="#c5cad1"/>
<rect x="48" y="48" width="3864" height="5507" fill="#d8dce2" stroke="#2d3748" stroke-width="16"/>
<line x1="128" y1="128" x2="3832" y2="128" stroke="#3d4854" stroke-width="3" stroke-linecap="square"/>
<line x1="128" y1="425.05555555555554" x2="3832" y2="425.05555555555554" stroke="#3d4854" stroke-width="3" stroke-linecap="square"/>
<line x1="128" y1="722.1111111111111" x2="3832" y2="722.1111111111111" stroke="#3d4854" stroke-width="3" stroke-linecap="square"/>
<line x1="128" y1="1019.1666666666666" x2="3832" y2="1019.1666666666666" stroke="#3d4854" stroke-width="3" stroke-linecap="square"/>
<line x1="128" y1="1316.2222222222222" x2="3832" y2="1316.2222222222222" stroke="#3d4854" stroke-width="3" stroke-linecap="square"/>
<line x1="128" y1="1613.2777777777778" x2="3832" y2="1613.2777777777778" stroke="#3d4854" stroke-width="3" stroke-linecap="square"/>
<line x1="128" y1="1910.3333333333333" x2="3832" y2="1910.3333333333333" stroke="#3d4854" stroke-width="3" stroke-linecap="square"/>
<line x1="128" y1="2207.3888888888887" x2="3832" y2="2207.3888888888887" stroke="#3d4854" stroke-width="3" stroke-linecap="square"/>
<line x1="128" y1="2504.4444444444443" x2="3832" y2="2504.4444444444443" stroke="#3d4854" stroke-width="3" stroke-linecap="square"/>
<line x1="128" y1="2801.5" x2="3832" y2="2801.5" stroke="#3d4854" stroke-width="3" stroke-linecap="square"/>
<line x1="128" y1="3098.5555555555557" x2="3832" y2="3098.5555555555557" stroke="#3d4854" stroke-width="3" stroke-linecap="square"/>
<line x1="128" y1="3395.611111111111" x2="3832" y2="3395.611111111111" stroke="#3d4854" stroke-width="3" stroke-linecap="square"/>
<line x1="128" y1="3692.6666666666665" x2="3832" y2="3692.6666666666665" stroke="#3d4854" stroke-width="3" stroke-linecap="square"/>
<line x1="128" y1="3989.722222222222" x2="3832" y2="3989.722222222222" stroke="#3d4854" stroke-width="3" stroke-linecap="square"/>
<line x1="128" y1="4286.777777777777" x2="3832" y2="4286.777777777777" stroke="#3d4854" stroke-width="3" stroke-linecap="square"/>
<line x1="128" y1="4583.833333333333" x2="3832" y2="4583.833333333333" stroke="#3d4854" stroke-width="3" stroke-linecap="square"/>
<line x1="128" y1="4880.888888888889" x2="3832" y2="4880.888888888889" stroke="#3d4854" stroke-width="3" stroke-linecap="square"/>
<line x1="128" y1="5177.944444444444" x2="3832" y2="5177.944444444444" stroke="#3d4854" stroke-width="3" stroke-linecap="square"/>
<line x1="128" y1="5475" x2="3832" y2="5475" stroke="#3d4854" stroke-width="3" stroke-linecap="square"/>
<line x1="128" y1="128" x2="128" y2="5475" stroke="#3d4854" stroke-width="3" stroke-linecap="square"/>
<line x1="392.57142857142856" y1="128" x2="392.57142857142856" y2="5475" stroke="#3d4854" stroke-width="3" stroke-linecap="square"/>
<line x1="657.1428571428571" y1="128" x2="657.1428571428571" y2="5475" stroke="#3d4854" stroke-width="3" stroke-linecap="square"/>
<line x1="921.7142857142857" y1="128" x2="921.7142857142857" y2="5475" stroke="#3d4854" stroke-width="3" stroke-linecap="square"/>
<line x1="1186.2857142857142" y1="128" x2="1186.2857142857142" y2="5475" stroke="#3d4854" stroke-width="3" stroke-linecap="square"/>
<line x1="1450.8571428571427" y1="128" x2="1450.8571428571427" y2="5475" stroke="#3d4854" stroke-width="3" stroke-linecap="square"/>
<line x1="1715.4285714285713" y1="128" x2="1715.4285714285713" y2="5475" stroke="#3d4854" stroke-width="3" stroke-linecap="square"/>
<line x1="1980" y1="128" x2="1980" y2="5475" stroke="#3d4854" stroke-width="3" stroke-linecap="square"/>
<line x1="2244.5714285714284" y1="128" x2="2244.5714285714284" y2="5475" stroke="#3d4854" stroke-width="3" stroke-linecap="square"/>
<line x1="2509.142857142857" y1="128" x2="2509.142857142857" y2="5475" stroke="#3d4854" stroke-width="3" stroke-linecap="square"/>
<line x1="2773.7142857142853" y1="128" x2="2773.7142857142853" y2="5475" stroke="#3d4854" stroke-width="3" stroke-linecap="square"/>
<line x1="3038.285714285714" y1="128" x2="3038.285714285714" y2="5475" stroke="#3d4854" stroke-width="3" stroke-linecap="square"/>
<line x1="3302.8571428571427" y1="128" x2="3302.8571428571427" y2="5475" stroke="#3d4854" stroke-width="3" stroke-linecap="square"/>
<line x1="3567.428571428571" y1="128" x2="3567.428571428571" y2="5475" stroke="#3d4854" stroke-width="3" stroke-linecap="square"/>
<line x1="3832" y1="128" x2="3832" y2="5475" stroke="#3d4854" stroke-width="3" stroke-linecap="square"/>
<rect x="1688.9714285714285" y="128" width="582.0571428571428" height="5347" fill="none" stroke="#2d3748" stroke-width="10"/>
<line x1="128" y1="2801.5" x2="3832" y2="2801.5" stroke="#3d4854" stroke-width="8" stroke-linecap="square"/>
<line x1="392.57142857142856" y1="930.05" x2="392.57142857142856" y2="2430.1805555555557" stroke="#3d4854" stroke-width="6" stroke-linecap="square"/>
<line x1="392.57142857142856" y1="3172.8194444444443" x2="392.57142857142856" y2="4672.95" stroke="#3d4854" stroke-width="6" stroke-linecap="square"/>
<line x1="921.7142857142857" y1="930.05" x2="921.7142857142857" y2="2430.1805555555557" stroke="#3d4854" stroke-width="6" stroke-linecap="square"/>
<line x1="921.7142857142857" y1="3172.8194444444443" x2="921.7142857142857" y2="4672.95" stroke="#3d4854" stroke-width="6" stroke-linecap="square"/>
<line x1="1450.8571428571427" y1="930.05" x2="1450.8571428571427" y2="2430.1805555555557" stroke="#3d4854" stroke-width="6" stroke-linecap="square"/>
<line x1="1450.8571428571427" y1="3172.8194444444443" x2="1450.8571428571427" y2="4672.95" stroke="#3d4854" stroke-width="6" stroke-linecap="square"/>
<line x1="1980" y1="930.05" x2="1980" y2="2430.1805555555557" stroke="#3d4854" stroke-width="6" stroke-linecap="square"/>
<line x1="1980" y1="3172.8194444444443" x2="1980" y2="4672.95" stroke="#3d4854" stroke-width="6" stroke-linecap="square"/>
<line x1="2509.142857142857" y1="930.05" x2="2509.142857142857" y2="2430.1805555555557" stroke="#3d4854" stroke-width="6" stroke-linecap="square"/>
<line x1="2509.142857142857" y1="3172.8194444444443" x2="2509.142857142857" y2="4672.95" stroke="#3d4854" stroke-width="6" stroke-linecap="square"/>
<line x1="3038.285714285714" y1="930.05" x2="3038.285714285714" y2="2430.1805555555557" stroke="#3d4854" stroke-width="6" stroke-linecap="square"/>
<line x1="3038.285714285714" y1="3172.8194444444443" x2="3038.285714285714" y2="4672.95" stroke="#3d4854" stroke-width="6" stroke-linecap="square"/>
<line x1="3567.428571428571" y1="930.05" x2="3567.428571428571" y2="2430.1805555555557" stroke="#3d4854" stroke-width="6" stroke-linecap="square"/>
<line x1="3567.428571428571" y1="3172.8194444444443" x2="3567.428571428571" y2="4672.95" stroke="#3d4854" stroke-width="6" stroke-linecap="square"/>
<rect x="657.1428571428571" y="722.1111111111111" width="793.7142857142857" height="1188.2222222222222" fill="#b8bec8" stroke="#2d3748" stroke-width="6"/>
<rect x="2509.1428571428573" y="1019.1666666666666" width="793.7142857142857" height="1485.2777777777778" fill="#b8bec8" stroke="#2d3748" stroke-width="6"/>
<rect x="1186.2857142857142" y="3692.666666666667" width="1587.4285714285713" height="1188.2222222222222" fill="#aeb6c2" stroke="#2d3748" stroke-width="6"/>
</svg>